<svg width="20" height="22" viewBox="0 0 20 22" fill="none" xmlns="http://www.w3.org/2000/svg">
<path d="M10.2 3.41663C15.5841 3.41663 19.95 6.33079 19.95 9.91663C19.95 11.7366 18.8233 13.3833 17.0141 14.5641C18.1733 13.6216 18.8666 12.43 18.8666 11.1408C18.8666 8.06413 14.9883 5.58329 10.2 5.58329V8.83329L5.86662 4.49996L10.2 0.166626V3.41663ZM10.2 18.5833C4.81578 18.5833 0.449951 15.6691 0.449951 12.0833C0.449951 10.2633 1.57662 8.61663 3.38578 7.43579C2.22662 8.37829 1.53328 9.56996 1.53328 10.87C1.53328 13.9358 5.41162 16.4166 10.2 16.4166V13.1666L14.5333 17.5L10.2 21.8333V18.5833Z" fill="white"/>
</svg>
